<mxfile host="app.diagrams.net" modified="2025-02-09T22:03:59.284Z" agent="Mozilla/5.0 (Windows NT 10.0; Win64; x64) AppleWebKit/537.36 (KHTML, like Gecko) Chrome/132.0.0.0 Safari/537.36" version="24.6.4" etag="FLQGtS4IrbaFdD_EzZhf" type="github">
  <diagram name="PÃ¡gina-1" id="RkKDzXB69765_Dg7q8pd">
    <mxGraphModel>
      <root>
        <mxCell id="0" />
        <mxCell id="1" parent="0" />
      </root>
    </mxGraphModel>
  </diagram>
</mxfile>
